<?xml version="1.0" standalone="no"?>
<!DOCTYPE svg PUBLIC "-//W3C//DTD SVG 20010904//EN"
 "http://www.w3.org/TR/2001/REC-SVG-20010904/DTD/svg10.dtd">
<svg version="1.0" xmlns="http://www.w3.org/2000/svg"
 width="2048.000000pt" height="2048.000000pt" viewBox="0 0 2048.000000 2048.000000"
 preserveAspectRatio="xMidYMid meet">
<metadata>
Created by potrace 1.14, written by Peter Selinger 2001-2017
</metadata>
<g transform="translate(0.000000,2048.000000) scale(0.100000,-0.100000)"
fill="#000000" stroke="none">
<path d="M18085 19074 c-332 -32 -672 -155 -1035 -372 -442 -264 -859 -577
-1659 -1246 -210 -177 -510 -424 -665 -549 -369 -300 -433 -356 -611 -538
-205 -210 -298 -327 -414 -522 -68 -114 -75 -118 -176 -104 -138 18 -677 14
-845 -6 -434 -54 -815 -153 -1430 -372 -399 -143 -530 -184 -695 -218 -183
-39 -302 -50 -510 -50 -310 0 -488 33 -1055 193 -385 109 -595 160 -780 189
-150 24 -328 41 -430 41 -73 0 -77 1 -130 41 -265 199 -907 375 -1820 498
-227 31 -1057 127 -1355 158 -232 23 -316 27 -595 27 -299 1 -335 -1 -445 -22
-357 -68 -637 -220 -887 -480 -120 -126 -198 -243 -298 -447 -168 -345 -303
-757 -379 -1160 -144 -760 -233 -1601 -313 -2970 -18 -319 -16 -1012 5 -1210
40 -388 126 -742 241 -990 160 -345 494 -587 880 -635 117 -15 287 -9 401 15
322 66 619 246 949 577 76 76 141 136 144 134 2 -3 18 -81 34 -173 142 -824
370 -1531 719 -2223 272 -541 562 -961 956 -1386 332 -358 786 -699 1177 -884
328 -156 674 -260 966 -291 140 -15 137 -13 105 -50 -59 -71 -64 -85 -180
-599 -143 -630 -179 -882 -179 -1240 0 -202 4 -270 22 -386 60 -388 199 -679
434 -915 143 -143 286 -241 499 -343 278 -133 585 -213 1004 -261 191 -22 692
-31 925 -16 610 38 1219 147 1790 320 849 256 1470 660 1755 1142 263 445 259
1023 -12 1647 -26 59 -162 339 -304 622 -142 283 -255 518 -251 522 4 3 70 30
147 59 268 101 594 278 810 437 595 441 1051 1052 1441 1929 410 924 667 2011
734 3113 6 91 13 324 17 518 3 193 9 352 12 352 3 0 34 -9 69 -20 34 -11 111
-25 170 -31 240 -27 424 45 621 242 284 284 551 779 893 1659 191 490 285 803
432 1440 212 913 339 1678 423 2530 22 221 24 757 5 935 -42 373 -127 648
-269 865 -157 239 -427 423 -706 480 -88 19 -277 31 -352 24z m297 -218 c218
-42 456 -196 577 -375 170 -250 251 -581 268 -1091 23 -714 -210 -2231 -542
-3525 -100 -394 -183 -643 -371 -1117 -346 -874 -656 -1399 -934 -1577 -84
-55 -154 -74 -260 -73 -97 1 -155 11 -258 48 -83 30 -92 42 -92 128 0 77 -27
334 -56 536 -93 648 -274 1264 -538 1830 -230 492 -481 860 -831 1219 -394
404 -831 668 -1314 793 -89 23 -161 44 -161 48 0 19 294 336 529 570 393 392
710 680 1048 951 70 56 177 149 236 206 191 182 792 653 1117 875 457 313 840
496 1155 552 106 19 333 20 427 2z m-14165 -2821 c426 -34 1345 -140 1788
-205 398 -60 821 -149 1067 -226 113 -35 288 -104 288 -113 0 -4 -57 -19 -127
-35 -774 -169 -1599 -729 -2055 -1396 -127 -185 -291 -495 -386 -730 -120
-298 -286 -825 -387 -1231 -143 -578 -216 -993 -260 -1479 -23 -254 -31 -753
-15 -1030 l12 -231 -28 -40 c-87 -126 -269 -314 -426 -441 -315 -255 -555
-354 -858 -352 -156 1 -248 19 -363 69 -317 137 -481 353 -597 789 -149 560
-162 1112 -60 2541 62 870 146 1575 256 2155 82 437 263 964 430 1254 194 338
498 570 872 666 198 50 502 63 849 35z m9270 -491 l62 -7 0 -181 c0 -346 34
-441 337 -939 191 -313 435 -688 854 -1312 500 -745 838 -1176 1225 -1560 190
-189 309 -289 482 -406 l128 -85 6 -155 c7 -174 -5 -733 -21 -932 -82 -1053
-322 -2043 -705 -2907 -431 -973 -954 -1623 -1628 -2022 -153 -91 -367 -193
-542 -258 -143 -54 -170 -60 -217 -46 -23 7 -33 3 -60 -24 -37 -37 -83 -52
-318 -105 -381 -85 -633 -115 -1025 -122 -320 -5 -474 5 -730 48 -282 47 -602
153 -795 262 -78 44 -213 135 -293 198 l-69 54 5 50 c3 28 8 58 12 67 6 14 -2
13 -62 -7 -84 -30 -88 -30 -126 -3 l-32 23 135 12 c605 54 1201 293 1680 673
201 159 468 447 644 693 280 392 503 909 551 1275 27 207 15 394 -34 522 -26
68 -104 175 -162 223 -115 94 -278 165 -523 227 -374 96 -819 139 -1876 185
-206 9 -405 21 -441 27 -94 15 -695 4 -879 -16 -366 -41 -977 -118 -1090 -137
-411 -69 -687 -206 -836 -415 -98 -137 -138 -265 -137 -439 1 -311 136 -652
450 -1130 227 -346 468 -640 754 -920 542 -531 960 -734 1593 -773 l120 -7 13
-50 c7 -27 13 -57 13 -65 0 -16 -234 -236 -348 -327 -269 -216 -601 -368 -937
-429 -141 -25 -492 -25 -660 0 -937 141 -1811 762 -2507 1781 -360 526 -676
1219 -884 1940 -108 373 -225 940 -250 1206 l-6 74 137 185 c76 102 178 246
228 320 187 280 436 632 586 830 492 650 600 792 717 941 120 151 386 500 595
779 234 313 745 1069 928 1374 231 385 314 572 422 951 53 187 62 306 29 397
-12 35 -27 68 -34 73 -13 11 -86 139 -86 151 0 11 174 -5 325 -31 196 -35 385
-81 715 -175 613 -175 885 -221 1227 -206 369 16 571 64 1178 283 664 238
1132 350 1585 377 86 5 498 -2 577 -10z m420 -69 c571 -135 1056 -452 1493
-976 219 -263 371 -500 545 -851 226 -457 398 -963 500 -1468 58 -294 115
-694 115 -818 l0 -53 -31 18 c-61 36 -244 189 -367 307 -242 234 -519 555
-792 920 -346 463 -1296 1911 -1496 2281 -84 156 -124 298 -124 443 0 73 15
196 26 214 7 11 12 11 131 -17z m-6246 -219 c54 -72 118 -188 146 -264 l25
-67 -27 -90 c-69 -234 -132 -420 -179 -530 -202 -466 -936 -1551 -1771 -2615
-88 -113 -263 -340 -388 -505 -125 -165 -277 -365 -337 -445 -121 -158 -312
-430 -550 -780 -83 -123 -173 -251 -199 -285 l-46 -60 -8 75 c-5 41 -6 219 -3
395 10 631 73 1100 242 1820 104 444 264 968 406 1329 60 153 196 425 288 579
422 702 1265 1296 2066 1456 269 54 285 53 335 -13z m2379 -6444 c52 -7 246
-19 430 -27 1029 -47 1471 -95 1826 -196 317 -91 452 -197 493 -387 14 -67 14
-256 0 -359 -26 -194 -130 -493 -263 -756 -153 -304 -370 -602 -625 -858 -242
-242 -462 -400 -756 -544 -406 -199 -759 -292 -1146 -302 -524 -15 -879 93
-1273 385 -421 313 -833 778 -1181 1335 -213 341 -326 625 -342 859 -14 211
76 393 255 512 82 54 151 85 290 130 139 44 268 66 712 120 593 73 719 87 881
95 203 11 580 7 699 -7z m103 -3995 c180 -140 341 -233 534 -311 711 -285
1644 -307 2613 -61 74 19 138 31 142 27 14 -14 526 -1039 571 -1144 157 -364
221 -702 187 -988 -47 -387 -237 -688 -609 -968 -445 -336 -1076 -583 -1906
-747 -1167 -231 -2230 -183 -2870 130 -487 238 -733 580 -809 1125 -61 432
-11 833 231 1845 45 191 48 225 28 321 l-7 31 179 6 c98 3 219 13 268 22 373
66 707 216 1010 452 92 72 277 241 322 293 14 17 27 30 30 30 2 0 41 -29 86
-63z"/>
<path d="M7477 12600 c-442 -70 -799 -460 -915 -1000 -92 -425 -16 -891 201
-1222 157 -241 372 -406 612 -469 113 -30 298 -30 410 0 448 120 774 554 851
1135 34 258 -4 579 -96 812 -153 384 -412 636 -745 726 -82 22 -236 31 -318
18z m268 -215 c33 -8 103 -36 155 -62 82 -40 108 -60 196 -147 60 -60 120
-132 148 -179 214 -344 262 -812 127 -1215 -32 -96 -106 -251 -138 -291 l-20
-24 -12 94 c-7 51 -20 112 -30 134 -25 56 -76 112 -125 137 -23 11 -61 35 -86
52 -87 61 -190 118 -228 127 -46 10 -174 -11 -224 -37 -49 -25 -115 -100 -148
-167 -67 -138 -98 -360 -65 -472 22 -77 57 -145 97 -191 l33 -37 -30 7 c-52
12 -155 64 -219 110 -195 140 -337 371 -414 676 -25 98 -27 119 -27 330 0 241
9 306 62 469 114 349 356 611 633 685 73 20 240 20 315 1z"/>
<path d="M12557 12540 c-442 -70 -799 -460 -915 -1000 -92 -425 -16 -891 201
-1222 157 -241 372 -406 612 -469 113 -30 298 -30 410 0 448 120 774 554 851
1135 34 258 -4 579 -96 812 -153 384 -412 636 -745 726 -82 22 -236 31 -318
18z m268 -215 c33 -8 103 -36 155 -62 82 -40 108 -60 196 -147 154 -155 246
-322 305 -553 135 -535 -42 -1132 -416 -1398 -68 -48 -144 -89 -152 -81 -3 3
2 27 12 53 25 71 31 226 12 293 -8 30 -18 87 -22 125 -12 122 -37 173 -180
368 -58 78 -192 145 -309 154 -129 10 -238 -37 -336 -144 -82 -90 -128 -194
-139 -317 l-6 -71 -34 80 c-18 44 -47 132 -64 195 -30 112 -31 121 -31 345 -1
247 7 310 61 474 114 349 356 611 633 685 73 20 240 20 315 1z"/>
<path d="M10180 4133 c0 -6 33 -56 73 -110 326 -437 575 -945 691 -1408 143
-573 168 -996 90 -1557 -9 -64 -14 -122 -12 -129 11 -33 80 268 110 481 20
145 17 593 -5 745 -28 189 -94 504 -133 633 -123 405 -340 812 -599 1127 -92
111 -215 236 -215 218z"/>
</g>
</svg>
